<svg width="1920" height="594" viewBox="0 0 1920 594" fill="none" xmlns="http://www.w3.org/2000/svg">
<g filter="url(#filter0_d_0_8)">
<path fill-rule="evenodd" clip-rule="evenodd" d="M0 421L52.8 392.167C107.2 363.333 212.8 305.667 320 296.056C427.2 286.444 532.8 324.889 640 363.333C747.2 401.778 852.8 440.222 960 469.056C1067.2 497.889 1172.8 517.111 1280 459.444C1387.2 401.778 1492.8 267.222 1600 190.333C1707.2 113.444 1812.8 94.2222 1867.2 84.6111L1920 75V594H1867.2C1812.8 594 1707.2 594 1600 594C1492.8 594 1387.2 594 1280 594C1172.8 594 1067.2 594 960 594C852.8 594 747.2 594 640 594C532.8 594 427.2 594 320 594C212.8 594 107.2 594 52.8 594H0V421Z" fill="#0066FF"/>
</g>
<defs>
<filter id="filter0_d_0_8" x="0" y="0" width="2045" height="619" filterUnits="userSpaceOnUse" color-interpolation-filters="sRGB">
<feFlood flood-opacity="0" result="BackgroundImageFix"/>
<feColorMatrix in="SourceAlpha" type="matrix" values="0 0 0 0 0 0 0 0 0 0 0 0 0 0 0 0 0 0 127 0" result="hardAlpha"/>
<feOffset dx="75" dy="-25"/>
<feGaussianBlur stdDeviation="25"/>
<feComposite in2="hardAlpha" operator="out"/>
<feColorMatrix type="matrix" values="0 0 0 0 0 0 0 0 0 0.4 0 0 0 0 1 0 0 0 0.3 0"/>
<feBlend mode="normal" in2="BackgroundImageFix" result="effect1_dropShadow_0_8"/>
<feBlend mode="normal" in="SourceGraphic" in2="effect1_dropShadow_0_8" result="shape"/>
</filter>
</defs>
</svg>
